<?xml version="1.0" encoding="UTF-8"?>
<svg version="1.1" xmlns="http://www.w3.org/2000/svg" width="513" height="487">
<path d="M0 0 C2.08813477 0.42456055 2.08813477 0.42456055 4 1 C4.56084983 31.41052427 0.06486178 60.02177866 -20 84 C-20.93585938 85.17949219 -20.93585938 85.17949219 -21.890625 86.3828125 C-40.27899362 108.55702172 -71.69336672 119.97700787 -99.66473389 122.80281067 C-116.63872295 124.23609038 -133.77202794 124.07899514 -150.79296875 124.02734375 C-151.69988338 124.02473478 -152.60679802 124.02212582 -153.54119492 124.01943779 C-162.0176784 123.99308837 -170.49408041 123.95354488 -178.97045898 123.90405273 C-183.66466539 123.87719425 -188.35882593 123.86021588 -193.05309486 123.84918404 C-194.81801408 123.84302694 -196.58292474 123.83308926 -198.3477993 123.81910515 C-212.72008379 123.21135542 -212.72008379 123.21135542 -225.9375 127.875 C-229.26051327 131.29871064 -230.30093876 134.12026812 -230.375 138.875 C-230.24723703 143.7016012 -229.41918666 146.40985401 -226 150 C-218.75707566 154.7512453 -212.00023267 154.5551942 -203.54785156 154.48242188 C-202.09145238 154.48461092 -200.63505497 154.4886125 -199.17866516 154.49427795 C-196.05261647 154.50281489 -192.92691192 154.4990981 -189.80088043 154.4858551 C-184.83790526 154.46539874 -179.87527137 154.47555086 -174.91229248 154.4901123 C-163.46632425 154.5190816 -152.02045753 154.50847817 -140.57447052 154.49741364 C-130.10970423 154.48769394 -119.64511955 154.48672917 -109.18038344 154.51729441 C-105.06502199 154.52837082 -100.95001161 154.53127313 -96.83466339 154.5141449 C-63.16760116 154.37770974 -33.32202207 158.26321887 -7 181 C-6.21109375 181.65613281 -5.4221875 182.31226563 -4.609375 182.98828125 C-0.454843 186.49639131 -0.454843 186.49639131 1 188 C1 188.66 1 189.32 1 190 C1.66 190 2.32 190 3 190 C20.5265238 208.22593907 28.39414592 231.59685179 28.15234375 256.421875 C27.71358945 266.72697589 25.40577777 276.29472418 22 286 C21.65195312 286.99902344 21.30390625 287.99804688 20.9453125 289.02734375 C11.29403059 314.35363868 -10.81273505 331.89012119 -34.85546875 342.78515625 C-43.06523573 346.33006658 -51.22092512 348.42339611 -60 350 C-60.71833008 350.16505035 -61.43666016 350.33010071 -62.17675781 350.50015259 C-65.83684456 351.14816107 -69.48955285 351.35268682 -73.1953125 351.54052734 C-73.98672638 351.58227774 -74.77814026 351.62402813 -75.59353638 351.66704369 C-84.01805015 352.08784845 -92.44163238 352.24264992 -100.875 352.3515625 C-102.50358328 352.37477105 -104.13216397 352.3981615 -105.76074219 352.42172241 C-109.12855184 352.46953891 -112.49638398 352.51456795 -115.86425781 352.55761719 C-120.18399206 352.61315692 -124.50356302 352.67692722 -128.82315063 352.74279213 C-132.16527827 352.79270156 -135.50745708 352.83787599 -138.84967041 352.88163376 C-140.44454158 352.90318066 -142.03939201 352.92632507 -143.63421631 352.9510994 C-145.84465448 352.9848328 -148.05507885 353.01208036 -150.265625 353.03759766 C-151.52149414 353.05456696 -152.77736328 353.07153625 -154.07128906 353.08901978 C-157 353 -157 353 -159 352 C-158.67 351.01 -158.34 350.02 -158 349 C-155.35072102 347.96887994 -152.78130695 347.11512055 -150.0625 346.3125 C-127.19690807 339.09514836 -100.57829507 327.78244218 -85.17578125 308.609375 C-84.45777344 307.74828125 -83.73976563 306.8871875 -83 306 C-82.34 306 -81.68 306 -81 306 C-80.73703125 305.43925781 -80.4740625 304.87851562 -80.203125 304.30078125 C-78.8877162 301.78527546 -77.34935318 299.53249757 -75.75 297.1875 C-69.27818465 287.05417743 -65.08433991 276.02939589 -64 264 C-63.9175 263.12601562 -63.835 262.25203125 -63.75 261.3515625 C-63.47422274 255.7498369 -64.56356255 251.79307282 -67.125 246.8125 C-68 245 -68 245 -68 243 C-68.7425 242.71125 -69.485 242.4225 -70.25 242.125 C-73 241 -73 241 -74.84191704 239.94387817 C-77.473132 238.79306682 -79.41050947 238.75922824 -82.27932739 238.77294922 C-83.88459541 238.77316071 -83.88459541 238.77316071 -85.52229309 238.77337646 C-87.2768708 238.78887543 -87.2768708 238.78887543 -89.06689453 238.8046875 C-90.30343277 238.80760803 -91.53997101 238.81052856 -92.8139801 238.8135376 C-95.50573899 238.82115811 -98.19720202 238.83240149 -100.88888931 238.84967041 C-105.17256959 238.87684375 -109.45620868 238.88853567 -113.73995972 238.89794922 C-123.63589629 238.92202416 -133.53172802 238.9656824 -143.42758942 239.01040649 C-152.44273663 239.05106889 -161.45784253 239.08721424 -170.47306335 239.10683632 C-174.01964329 239.11503743 -177.56609623 239.12736139 -181.11261368 239.15032959 C-225.54207251 239.43468053 -263.94319251 236.51474869 -297.125 204.25 C-314.51565795 186.78962325 -323.76143247 163.69802521 -324.3125 139.1875 C-324.1912398 118.98069944 -317.49143441 101.38907528 -306 85 C-305.46632813 84.19949219 -304.93265625 83.39898437 -304.3828125 82.57421875 C-303.31929128 81.00410902 -302.171635 79.49117182 -301 78 C-300.34 78 -299.68 78 -299 78 C-299 77.34 -299 76.68 -299 76 C-298.34 76 -297.68 76 -297 76 C-297 75.34 -297 74.68 -297 74 C-296.34 74 -295.68 74 -295 74 C-295 73.34 -295 72.68 -295 72 C-294.34 72 -293.68 72 -293 72 C-293 71.34 -293 70.68 -293 70 C-292.34 70 -291.68 70 -291 70 C-291 69.34 -291 68.68 -291 68 C-268.10477308 48.46010806 -240.84506008 40.90176091 -211.2578125 40.12109375 C-209.47822048 40.0641746 -207.69866936 40.00596403 -205.91915894 39.94654846 C-201.26358798 39.79373253 -196.607722 39.65472359 -191.95159912 39.51989746 C-183.65733932 39.27811364 -175.36368809 39.01638591 -167.0703125 38.74609375 C-166.18310642 38.71732777 -165.29590034 38.68856178 -164.38180923 38.6589241 C-150.2109643 38.19150234 -136.11111029 37.43430172 -122 36 C-121.26489197 35.92611053 -120.52978394 35.85222107 -119.7723999 35.77609253 C-55.57052913 30.50757893 -55.57052913 30.50757893 -1.41015625 1.20703125 C-0.94480469 0.80871094 -0.47945313 0.41039063 0 0 Z " fill="#FDFDFD" transform="translate(419,26)"/>
<path d="M0 0 C4.51261506 0.02074105 9.02525349 0.02965311 13.53790283 0.03967285 C22.33614291 0.06089514 31.13427094 0.09486823 39.93243408 0.1373291 C41.1585083 4.73742676 41.1585083 4.73742676 39.12384033 8.33654785 C38.26366988 9.51129205 37.38627659 10.67355778 36.49493408 11.8248291 C36.03336914 12.44277344 35.5718042 13.06071777 35.09625244 13.6973877 C33.72404885 15.52335918 32.33126065 17.33171143 30.93243408 19.1373291 C30.25180908 20.03322754 29.57118408 20.92912598 28.86993408 21.85217285 C23.60204914 28.62359995 17.80513499 34.89316217 11.93243408 41.1373291 C10.98884033 42.16213379 10.98884033 42.16213379 10.02618408 43.2076416 C5.55965118 47.90592857 0.49005594 51.79462784 -5.06756592 55.1373291 C-5.72756592 55.1373291 -6.38756592 55.1373291 -7.06756592 55.1373291 C-7.06756592 55.7973291 -7.06756592 56.4573291 -7.06756592 57.1373291 C-18.17706055 63.20622145 -29.1598744 68.78572246 -41.06756592 73.1373291 C-41.72933838 73.3843457 -42.39111084 73.6313623 -43.07293701 73.88586426 C-50.92445227 76.81188328 -58.77587429 79.38277995 -66.88006592 81.5123291 C-89.33300763 87.51855222 -112.27378266 97.52579532 -127.06756592 116.1373291 C-127.72756592 116.1373291 -128.38756592 116.1373291 -129.06756592 116.1373291 C-129.33311279 116.87596191 -129.59865967 117.61459473 -129.87225342 118.37561035 C-131.05236086 121.10219846 -132.36879063 122.99633461 -134.19256592 125.3248291 C-142.29265957 136.63790353 -147.22511194 150.72893143 -150.86444092 164.05529785 C-151.11709717 164.96924316 -151.36975342 165.88318848 -151.63006592 166.8248291 C-151.83760498 167.63307129 -152.04514404 168.44131348 -152.25897217 169.27404785 C-152.52580811 169.88893066 -152.79264404 170.50381348 -153.06756592 171.1373291 C-154.05756592 171.4673291 -155.04756592 171.7973291 -156.06756592 172.1373291 C-156.18447174 162.5564066 -156.27278574 152.97573724 -156.32662678 143.39425182 C-156.35249455 138.94303516 -156.38746302 134.49231364 -156.44476318 130.04138184 C-156.91831638 92.25943139 -156.91831638 92.25943139 -151.06756592 77.1373291 C-150.58504087 75.83182341 -150.10294169 74.52616023 -149.62127686 73.22033691 C-146.25355505 64.4491244 -141.34763742 56.84311611 -136.06756592 49.1373291 C-135.53389404 48.33424316 -135.00022217 47.53115723 -134.45037842 46.70373535 C-133.38510613 45.13734385 -132.23790771 43.62685502 -131.06756592 42.1373291 C-130.40756592 42.1373291 -129.74756592 42.1373291 -129.06756592 42.1373291 C-128.82006592 41.5598291 -128.57256592 40.9823291 -128.31756592 40.3873291 C-126.88456603 37.80792931 -125.28331915 36.07611318 -123.06756592 34.1373291 C-122.40756592 34.1373291 -121.74756592 34.1373291 -121.06756592 34.1373291 C-121.06756592 33.4773291 -121.06756592 32.8173291 -121.06756592 32.1373291 C-119.10321583 30.51367098 -117.14947808 29.03548981 -115.06756592 27.5748291 C-114.44108154 27.13300293 -113.81459717 26.69117676 -113.16912842 26.23596191 C-99.10253439 16.49915449 -84.024809 8.74834887 -67.44256592 4.3873291 C-66.71070068 4.18849121 -65.97883545 3.98965332 -65.22479248 3.78479004 C-44.02533556 -1.4147402 -21.64688987 -0.11023304 0 0 Z " fill="#FC0000" transform="translate(251.06756591796875,293.8626708984375)"/>
<path d="M0 0 C4.51261506 0.02074105 9.02525349 0.02965311 13.53790283 0.03967285 C22.33614291 0.06089514 31.13427094 0.09486823 39.93243408 0.1373291 C41.1585083 4.73742676 41.1585083 4.73742676 39.12384033 8.33654785 C38.26366988 9.51129205 37.38627659 10.67355778 36.49493408 11.8248291 C36.03336914 12.44277344 35.5718042 13.06071777 35.09625244 13.6973877 C33.72404885 15.52335918 32.33126065 17.33171143 30.93243408 19.1373291 C30.25180908 20.03322754 29.57118408 20.92912598 28.86993408 21.85217285 C23.60374235 28.62142348 17.78408456 34.87692363 11.93243408 41.1373291 C11.93243408 36.8589265 14.2164784 35.31698453 16.93243408 32.1373291 C17.26243408 31.1473291 17.59243408 30.1573291 17.93243408 29.1373291 C18.92243408 28.8073291 19.91243408 28.4773291 20.93243408 28.1373291 C21.26243408 27.4773291 21.59243408 26.8173291 21.93243408 26.1373291 C22.59243408 26.1373291 23.25243408 26.1373291 23.93243408 26.1373291 C24.03813721 25.54693848 24.14384033 24.95654785 24.25274658 24.3482666 C25.02671547 21.83064368 26.01145276 20.66553319 27.80743408 18.7623291 C30.49441888 15.77176669 32.30566348 12.84275103 33.93243408 9.1373291 C34.59243408 9.1373291 35.25243408 9.1373291 35.93243408 9.1373291 C35.93243408 7.4873291 35.93243408 5.8373291 35.93243408 4.1373291 C25.04745925 4.22235928 14.16262108 4.31747397 3.27784252 4.42485619 C-1.77842881 4.4744342 -6.83468302 4.52076164 -11.89105225 4.5592041 C-16.78654902 4.59655071 -21.68188735 4.64303126 -26.57724571 4.69539261 C-28.42875019 4.71367836 -30.28028827 4.72887726 -32.13184547 4.74067307 C-41.57657146 4.80289661 -50.95410357 5.06408978 -60.35931396 5.97570801 C-61.11893086 6.04421652 -61.87854776 6.11272503 -62.66118336 6.18330956 C-67.84428303 6.74543253 -72.26440341 8.15592105 -77.06756592 10.1373291 C-78.38462524 10.61925757 -79.70342356 11.09648435 -81.02459717 11.5670166 C-82.31007344 12.0479329 -83.5952314 12.52970091 -84.88006592 13.0123291 C-85.53426514 13.24307129 -86.18846436 13.47381348 -86.86248779 13.71154785 C-91.32151812 15.41499764 -92.82016764 17.03760832 -95.06756592 21.1373291 C-97.37225342 22.64904785 -97.37225342 22.64904785 -99.94256592 23.8248291 C-100.78561279 24.22057129 -101.62865967 24.61631348 -102.49725342 25.02404785 C-104.16551704 25.74662404 -105.85477834 26.42314018 -107.56365967 27.0435791 C-110.50498698 28.32840227 -112.73960442 29.95953203 -115.25506592 31.9498291 C-116.11487061 32.61627441 -116.97467529 33.28271973 -117.86053467 33.96936035 C-120.21552539 36.28266982 -120.97019267 38.07404549 -122.06756592 41.1373291 C-123.05756592 41.6323291 -123.05756592 41.6323291 -124.06756592 42.1373291 C-124.72311711 44.66466145 -124.72311711 44.66466145 -125.06756592 47.1373291 C-125.95444092 47.1992041 -126.84131592 47.2610791 -127.75506592 47.3248291 C-131.93033608 48.34895197 -133.35740175 49.84118349 -136.06756592 53.1373291 C-137.08447855 55.12878302 -138.0839924 57.12919984 -139.06756592 59.1373291 C-140.64690689 61.23198374 -142.33125368 63.16638008 -144.06756592 65.1373291 C-144.06756592 57.0385757 -136.06811635 48.04305644 -131.06756592 42.1373291 C-130.40756592 42.1373291 -129.74756592 42.1373291 -129.06756592 42.1373291 C-128.82006592 41.5598291 -128.57256592 40.9823291 -128.31756592 40.3873291 C-126.88456603 37.80792931 -125.28331915 36.07611318 -123.06756592 34.1373291 C-122.40756592 34.1373291 -121.74756592 34.1373291 -121.06756592 34.1373291 C-121.06756592 33.4773291 -121.06756592 32.8173291 -121.06756592 32.1373291 C-119.10321583 30.51367098 -117.14947808 29.03548981 -115.06756592 27.5748291 C-114.44108154 27.13300293 -113.81459717 26.69117676 -113.16912842 26.23596191 C-99.10253439 16.49915449 -84.024809 8.74834887 -67.44256592 4.3873291 C-66.71070068 4.18849121 -65.97883545 3.98965332 -65.22479248 3.78479004 C-44.02533556 -1.4147402 -21.64688987 -0.11023304 0 0 Z " fill="#C10D0C" transform="translate(251.06756591796875,293.8626708984375)"/>
<path d="M0 0 C0.33 0 0.66 0 1 0 C0.38931487 6.94252565 -0.78930669 13.36792008 -3 20 C-3.66 20 -4.32 20 -5 20 C-6.01696949 27.67612915 -6.21426146 35.26641525 -6.31640625 43.00390625 C-6.33718735 44.32293442 -6.35796844 45.64196259 -6.37937927 47.0009613 C-6.4341089 50.47782612 -6.48373093 53.95474505 -6.53222656 57.43170166 C-6.58280438 60.9916251 -6.63829945 64.55147169 -6.69335938 68.11132812 C-6.80033854 75.07415192 -6.90191267 82.03704541 -7 89 C-6.01 89 -5.02 89 -4 89 C-3.22597091 85.24142629 -2.56160508 81.47373749 -1.9375 77.6875 C-1.76089844 76.61886719 -1.58429688 75.55023438 -1.40234375 74.44921875 C-1.26957031 73.64097656 -1.13679688 72.83273437 -1 72 C0.485 71.505 0.485 71.505 2 71 C3.13545562 68.70465742 3.13545562 68.70465742 4 66 C4.66666667 64.33333333 5.33333333 62.66666667 6 61 C6.66 61 7.32 61 8 61 C8.0825 60.29875 8.165 59.5975 8.25 58.875 C9.19763362 55.24240445 10.65823179 52.92721026 13 50 C14.64991582 49.29289322 16.31562256 48.62056011 18 48 C18.6837045 46.67532254 19.34964186 45.34136367 20 44 C21.64821244 42.96986723 23.31503702 41.96885372 25 41 C25.66 40.01 26.32 39.02 27 38 C27.99 37.67 28.98 37.34 30 37 C30.66 36.01 31.32 35.02 32 34 C32.99 34 33.98 34 35 34 C35 33.34 35 32.68 35 32 C36.32 32 37.64 32 39 32 C39 31.34 39 30.68 39 30 C40.8125 28.9375 40.8125 28.9375 43 28 C43.99 28.33 44.98 28.66 46 29 C45.24976563 29.4846875 44.49953125 29.969375 43.7265625 30.46875 C34.56006357 36.47199867 25.89086766 42.38641543 19 51 C18.34 51 17.68 51 17 51 C16.73445313 51.73863281 16.46890625 52.47726562 16.1953125 53.23828125 C15.01520506 55.96486936 13.69877528 57.85900551 11.875 60.1875 C3.77490635 71.50057443 -1.15754602 85.59160233 -4.796875 98.91796875 C-5.04953125 99.83191406 -5.3021875 100.74585938 -5.5625 101.6875 C-5.77003906 102.49574219 -5.97757812 103.30398438 -6.19140625 104.13671875 C-6.45824219 104.75160156 -6.72507812 105.36648438 -7 106 C-8.485 106.495 -8.485 106.495 -10 107 C-10.11690582 97.4190775 -10.20521982 87.83840814 -10.25906086 78.25692272 C-10.28492863 73.80570606 -10.31989711 69.35498454 -10.37719727 64.90405273 C-10.85220206 27.00521449 -10.85220206 27.00521449 -5 12 C-4.75288773 11.35548386 -4.50577545 10.71096771 -4.25117493 10.04692078 C-2.94 6.64437277 -1.54857581 3.30143184 0 0 Z " fill="#BD0E0D" transform="translate(105,359)"/>
<path d="M0 0 C2.97 0.495 2.97 0.495 6 1 C6 1.66 6 2.32 6 3 C7.09441406 3.18755859 7.09441406 3.18755859 8.2109375 3.37890625 C10.89650819 3.9769535 13.11644177 4.82584794 15.625 5.9375 C20.27883751 7.86611735 24.7809437 8.85022866 29.75 9.60546875 C32 10 32 10 34 11 C41.91476192 12.17563353 49.80381617 12.1722645 57.79125977 12.20532227 C59.27040368 12.21491766 60.74954494 12.22492867 62.22868347 12.23532104 C66.21974172 12.26219641 70.21081159 12.28329922 74.2019093 12.30332303 C78.38193673 12.32529061 82.56192906 12.35262626 86.7419281 12.37937927 C94.64645301 12.42916127 102.55099756 12.47415346 110.45556062 12.51740164 C119.45924878 12.5668984 128.4629017 12.62177014 137.46655571 12.67708123 C155.97767105 12.7906786 174.48881969 12.8975655 193 13 C193 13.66 193 14.32 193 15 C161.28614356 15.60636671 129.57114027 16.1114978 97.85101318 16.17724609 C95.07448546 16.18302494 92.29804006 16.19333282 89.52154541 16.20800781 C23.41727871 16.53815674 23.41727871 16.53815674 0 1 C0 0.67 0 0.34 0 0 Z " fill="#978C8D" transform="translate(148,249)"/>
<path d="M0 0 C-1.72436166 1.60960555 -3.45413328 3.21264034 -5.1875 4.8125 C-6.15042969 5.70582031 -7.11335938 6.59914063 -8.10546875 7.51953125 C-14.5007874 13 -14.5007874 13 -18 13 C-18 13.66 -18 14.32 -18 15 C-29.10949463 21.06889235 -40.09230848 26.64839336 -52 31 C-52.66177246 31.2470166 -53.32354492 31.4940332 -54.00537109 31.74853516 C-61.85640004 34.67437294 -69.70744492 37.24976934 -77.8125 39.375 C-87.20614207 41.84068865 -96.06684902 45.44199832 -104.99560547 49.23144531 C-106.97852287 49.99176492 -108.93087321 50.53013942 -111 51 C-108.63849542 47.18372888 -106.65467539 44.39948267 -102.15234375 43.3125 C-99.42063989 43.08691413 -96.74016077 42.96586988 -94 43 C-94 42.34 -94 41.68 -94 41 C-89.00703705 38.0554321 -84.66442374 37.36504064 -79 37 C-79 36.34 -79 35.68 -79 35 C-69.58997722 31.55580866 -69.58997722 31.55580866 -65 32 C-65 31.34 -65 30.68 -65 30 C-63.6875 29.5625 -62.375 29.125 -61.0625 28.6875 C-60.24523437 28.41292969 -59.42796875 28.13835937 -58.5859375 27.85546875 C-56.90878001 27.3006387 -55.22662136 26.7606209 -53.5390625 26.23828125 C-49.41764461 24.94434773 -46.40884975 23.70357049 -43 21 C-41 20.33333333 -39 19.66666667 -37 19 C-35.79830531 18.35927341 -34.61085485 17.69125906 -33.4375 17 C-30.59521329 15.34630592 -28.04162581 14.18285448 -25 13 C-21.87988283 11.67825589 -18.76126496 10.3531414 -15.64453125 9.0234375 C-13 8 -13 8 -11 8 C-10.7215625 6.6078125 -10.7215625 6.6078125 -10.4375 5.1875 C-8.92154512 1.82603484 -8.64798987 1.46306098 -5.5 0.0625 C-2 -1 -2 -1 0 0 Z " fill="#D8090D" transform="translate(262,336)"/>
<path d="M0 0 C19.42886935 -0.07028928 38.85771266 -0.12308531 58.28668308 -0.15543652 C67.30924815 -0.17086147 76.33173391 -0.19186669 85.35424805 -0.22631836 C93.22439806 -0.25635533 101.0944906 -0.27560672 108.96469635 -0.28226548 C113.12635829 -0.28615369 117.28785588 -0.29519869 121.4494648 -0.31719017 C125.37862575 -0.33778211 129.30755702 -0.34378875 133.23676682 -0.33932304 C134.66726753 -0.34013822 136.09777715 -0.3459672 137.52823067 -0.35761642 C147.44150283 -0.43428401 156.38941093 0.73528985 166 3 C166 3.33 166 3.66 166 4 C164.95388581 3.93019456 163.90777163 3.86038912 162.82995701 3.78846836 C153.01247609 3.15726563 143.23195119 2.83658899 133.39233398 2.79467773 C131.92186228 2.78505968 130.45139311 2.77504758 128.98092651 2.76467896 C125.0502569 2.73804805 121.11957579 2.71681692 117.18886828 2.69667697 C113.05826998 2.67455396 108.92770536 2.64729616 104.7971344 2.62062073 C97.00266472 2.57104459 89.208176 2.52597822 81.41366965 2.48259836 C72.52829522 2.4329228 63.64295462 2.37811882 54.75761306 2.32291877 C36.50510691 2.20963846 18.25256868 2.10268559 0 2 C0 1.34 0 0.68 0 0 Z " fill="#C7C1C2" transform="translate(201,181)"/>
<path d="M0 0 C0 0.66 0 1.32 0 2 C-0.969375 2.45375 -1.93875 2.9075 -2.9375 3.375 C-6.07079582 4.65786221 -6.07079582 4.65786221 -7 7 C-10.19407739 7.92165551 -13.385886 8.68912413 -16.62890625 9.41210938 C-18.44357138 9.85091568 -20.22616546 10.41770151 -22 11 C-22.33 11.99 -22.66 12.98 -23 14 C2.74 14.33 28.48 14.66 55 15 C55 15.33 55 15.66 55 16 C43.03844368 16.74605288 31.1081001 17.19680697 19.125 17.3515625 C17.49641672 17.37477105 15.86783603 17.3981615 14.23925781 17.42172241 C10.87144816 17.46953891 7.50361602 17.51456795 4.13574219 17.55761719 C-0.18399206 17.61315692 -4.50356302 17.67692722 -8.82315063 17.74279213 C-12.16527827 17.79270156 -15.50745708 17.83787599 -18.84967041 17.88163376 C-20.44454158 17.90318066 -22.03939201 17.92632507 -23.63421631 17.9510994 C-25.84465448 17.9848328 -28.05507885 18.01208036 -30.265625 18.03759766 C-31.52149414 18.05456696 -32.77736328 18.07153625 -34.07128906 18.08901978 C-37 18 -37 18 -39 17 C-38.505 15.515 -38.505 15.515 -38 14 C-35.35074482 12.9688892 -32.78171883 12.11375865 -30.0625 11.3125 C-22.32486952 8.90506315 -15.01107243 5.95218666 -7.66430664 2.5402832 C-2.17305802 0 -2.17305802 0 0 0 Z " fill="#D5D0D1" transform="translate(299,361)"/>
<path d="M0 0 C0.33 0 0.66 0 1 0 C0.38931487 6.94252565 -0.78930669 13.36792008 -3 20 C-3.66 20 -4.32 20 -5 20 C-5.06058594 20.63808594 -5.12117188 21.27617187 -5.18359375 21.93359375 C-5.30927734 23.17302734 -5.30927734 23.17302734 -5.4375 24.4375 C-5.51871094 25.26121094 -5.59992188 26.08492188 -5.68359375 26.93359375 C-6 29 -6 29 -7 30 C-7.12380838 32.05478453 -7.17798203 34.1137896 -7.20532227 36.17211914 C-7.21522186 36.81600082 -7.22512146 37.45988251 -7.23532104 38.12327576 C-7.26701528 40.26053131 -7.29172449 42.39780913 -7.31640625 44.53515625 C-7.33696896 46.01346936 -7.35796524 47.49177649 -7.37937927 48.97007751 C-7.43467059 52.86792171 -7.48404857 56.76581958 -7.53222656 60.66375732 C-7.58239019 64.63851723 -7.63810301 68.61319884 -7.69335938 72.58789062 C-7.80102724 80.39186085 -7.90245287 88.19589602 -8 96 C-6.68 95.01 -5.36 94.02 -4 93 C-4.28427417 94.58467728 -4.57774818 96.1677057 -4.875 97.75 C-5.03742188 98.63171875 -5.19984375 99.5134375 -5.3671875 100.421875 C-5.96796264 102.86947744 -6.77997117 104.80599857 -8 107 C-8.66 107 -9.32 107 -10 107 C-10.11690582 97.4190775 -10.20521982 87.83840814 -10.25906086 78.25692272 C-10.28492863 73.80570606 -10.31989711 69.35498454 -10.37719727 64.90405273 C-10.85220206 27.00521449 -10.85220206 27.00521449 -5 12 C-4.75288773 11.35548386 -4.50577545 10.71096771 -4.25117493 10.04692078 C-2.94 6.64437277 -1.54857581 3.30143184 0 0 Z " fill="#8E0F10" transform="translate(105,359)"/>
<path d="M0 0 C1.79244141 0.01740234 1.79244141 0.01740234 3.62109375 0.03515625 C5.41740234 0.04869141 5.41740234 0.04869141 7.25 0.0625 C8.17683594 0.07410156 9.10367188 0.08570313 10.05859375 0.09765625 C-11.87787512 12.46278847 -54.53865464 5.22106119 -79.12103271 5.1663208 C-84.30464256 5.15591339 -89.48825762 5.15148668 -94.671875 5.14648438 C-104.761732 5.13590231 -114.85156651 5.11893774 -124.94140625 5.09765625 C-124.94140625 4.43765625 -124.94140625 3.77765625 -124.94140625 3.09765625 C-124.36640884 3.09342431 -123.79141144 3.08919237 -123.19898987 3.08483219 C-109.18454634 2.98136392 -95.17015104 2.87270259 -81.15579224 2.75831699 C-74.37845522 2.70312439 -67.60111294 2.649666 -60.82373047 2.6003418 C-54.28144668 2.55272365 -47.7392128 2.5002044 -41.19699097 2.4447155 C-38.7028022 2.42435799 -36.20859954 2.40563425 -33.71438599 2.38858223 C-30.21709177 2.36439163 -26.71989235 2.3343576 -23.22265625 2.30297852 C-22.194785 2.29722305 -21.16691376 2.29146759 -20.1078949 2.28553772 C-13.15281012 2.21475139 -6.38486999 0.21198108 0 0 Z " fill="#A39E9F" transform="translate(324.94140625,144.90234375)"/>
<path d="M0 0 C28.38 0 56.76 0 86 0 C86 1.65 86 3.3 86 5 C85.34 5 84.68 5 84 5 C83.7215625 6.2375 83.7215625 6.2375 83.4375 7.5 C81.77142556 11.55652907 79.54754548 14.01745206 76.55859375 17.16796875 C74.7852568 19.0211153 74.7852568 19.0211153 74 22 C73.34 22 72.68 22 72 22 C71.505 23.485 71.505 23.485 71 25 C70.01 25 69.02 25 68 25 C67.95875 25.680625 67.9175 26.36125 67.875 27.0625 C66.24441032 32.5366225 62.53569714 36.0549556 57.75 39 C56.38875 39.495 56.38875 39.495 55 40 C54.01 39.505 54.01 39.505 53 39 C53.66 36.69 54.32 34.38 55 32 C55.99 32.33 56.98 32.66 58 33 C60.74822309 32.08392564 61.76898598 31.39272383 63.25 28.875 C63.4975 28.25625 63.745 27.6375 64 27 C64.66 27 65.32 27 66 27 C66.495 25.515 66.495 25.515 67 24 C67.99 24 68.98 24 70 24 C70.33 22.68 70.66 21.36 71 20 C71.66 20 72.32 20 73 20 C73.268125 19.195625 73.53625 18.39125 73.8125 17.5625 C74.4003125 16.2940625 74.4003125 16.2940625 75 15 C75.99 14.67 76.98 14.34 78 14 C78.73323796 11.98491642 78.73323796 11.98491642 79 10 C79.66 10 80.32 10 81 10 C81.103125 9.443125 81.20625 8.88625 81.3125 8.3125 C82 6 82 6 85 1 C56.95 1 28.9 1 0 1 C0 0.67 0 0.34 0 0 Z " fill="#EA0604" transform="translate(201,298)"/>
<path d="M0 0 C4.51261506 0.02074105 9.02525349 0.02965311 13.53790283 0.03967285 C22.33614291 0.06089514 31.13427094 0.09486823 39.93243408 0.1373291 C40.42743408 2.6123291 40.42743408 2.6123291 40.93243408 5.1373291 C40.27243408 5.4673291 39.61243408 5.7973291 38.93243408 6.1373291 C38.93243408 4.8173291 38.93243408 3.4973291 38.93243408 2.1373291 C7.25243408 2.4673291 -24.42756592 2.7973291 -57.06756592 3.1373291 C-57.06756592 2.8073291 -57.06756592 2.4773291 -57.06756592 2.1373291 C-38.13941927 -0.6159123 -19.07384133 -0.09713024 0 0 Z " fill="#8F1419" transform="translate(251.06756591796875,293.8626708984375)"/>
<path d="M0 0 C-10.7018106 4.41388041 -21.42838939 8.37586441 -32.625 11.3125 C-42.08141421 13.80443456 -51.0047281 17.41563363 -59.99560547 21.23144531 C-61.97852287 21.99176492 -63.93087321 22.53013942 -66 23 C-63.63849542 19.18372888 -61.65467539 16.39948267 -57.15234375 15.3125 C-54.42063989 15.08691413 -51.74016077 14.96586988 -49 15 C-49 14.34 -49 13.68 -49 13 C-44.00703705 10.0554321 -39.66442374 9.36504064 -34 9 C-34 8.34 -34 7.68 -34 7 C-32.2984375 6.72736328 -32.2984375 6.72736328 -30.5625 6.44921875 C-29.04159623 6.19573479 -27.52076678 5.94180459 -26 5.6875 C-25.25621094 5.56955078 -24.51242188 5.45160156 -23.74609375 5.33007812 C-18.51796266 4.44356894 -13.91805661 2.98725331 -9 1 C-3.37168142 -1.12389381 -3.37168142 -1.12389381 0 0 Z " fill="#A51316" transform="translate(217,364)"/>
<path d="M0 0 C0 0.33 0 0.66 0 1 C-4.62 1 -9.24 1 -14 1 C-14 1.66 -14 2.32 -14 3 C-32.01436648 3.99980627 -49.96510655 4.11536936 -68 4 C-68 3.67 -68 3.34 -68 3 C-60.57992403 1.46828753 -53.3808749 0.61465999 -45.8125 0.375 C-44.77037354 0.33705322 -43.72824707 0.29910645 -42.65454102 0.26000977 C-28.44235758 -0.19677712 -14.21730459 -0.08879839 0 0 Z " fill="#BAB8B7" transform="translate(246,66)"/>
<path d="M0 0 C0.33 0 0.66 0 1 0 C1.06584507 3.75316891 1.12382144 7.22405232 0.53125 10.9375 C-0.34542003 16.72570029 -0.36808746 22.59556264 -0.5625 28.4375 C-0.60568359 29.64599609 -0.64886719 30.85449219 -0.69335938 32.09960938 C-0.79889404 35.06630606 -0.90100714 38.03307902 -1 41 C-0.34 41.33 0.32 41.66 1 42 C1.31241455 44.71446979 1.51336592 47.33909361 1.625 50.0625 C1.66367188 50.82111328 1.70234375 51.57972656 1.7421875 52.36132812 C1.83673562 54.24047195 1.91946756 56.12020336 2 58 C-0.59998119 55.40001881 -0.77666154 53.38785926 -1.5625 49.8125 C-1.81128906 48.70519531 -2.06007813 47.59789062 -2.31640625 46.45703125 C-5.48132019 30.45160934 -4.06751271 15.6382042 0 0 Z " fill="#A9A4A5" transform="translate(99,137)"/>
<path d="M0 0 C-1.72436166 1.60960555 -3.45413328 3.21264034 -5.1875 4.8125 C-6.63189453 6.15248047 -6.63189453 6.15248047 -8.10546875 7.51953125 C-14.5007874 13 -14.5007874 13 -18 13 C-18 13.66 -18 14.32 -18 15 C-21.06032459 16.62912132 -24.12363037 18.252557 -27.1875 19.875 C-28.05181641 20.33519531 -28.91613281 20.79539062 -29.80664062 21.26953125 C-30.64775391 21.71425781 -31.48886719 22.15898437 -32.35546875 22.6171875 C-33.12528076 23.02565918 -33.89509277 23.43413086 -34.68823242 23.85498047 C-41.42495433 27.19168189 -41.42495433 27.19168189 -45 26 C-42.35261084 24.5393715 -41.10551666 24 -38 24 C-37.67 23.01 -37.34 22.02 -37 21 C-36.01 21 -35.02 21 -34 21 C-34 20.34 -34 19.68 -34 19 C-30.28026121 16.15549386 -27.62609198 15.6772494 -23 16 C-22.7525 15.38640625 -22.505 14.7728125 -22.25 14.140625 C-20.76937747 11.60505891 -19.63432463 10.97031215 -17 9.75 C-16.29875 9.41484375 -15.5975 9.0796875 -14.875 8.734375 C-13 8 -13 8 -11 8 C-10.7215625 6.6078125 -10.7215625 6.6078125 -10.4375 5.1875 C-8.92154512 1.82603484 -8.64798987 1.46306098 -5.5 0.0625 C-2 -1 -2 -1 0 0 Z " fill="#88181A" transform="translate(262,336)"/>
<path d="M0 0 C2.11230469 0.39550781 2.11230469 0.39550781 4 1 C4.2568797 14.92858823 3.88278435 28.31326709 1 42 C0.67 42 0.34 42 0 42 C-0.02685938 39.85423363 -0.04633088 37.70837355 -0.0625 35.5625 C-0.07410156 34.36753906 -0.08570313 33.17257813 -0.09765625 31.94140625 C0 29 0 29 1 28 C1.08748207 26.07332493 1.10697334 24.14348139 1.09765625 22.21484375 C1.09282227 20.46010742 1.09282227 20.46010742 1.08789062 18.66992188 C1.07951172 17.43822266 1.07113281 16.20652344 1.0625 14.9375 C1.05798828 13.70193359 1.05347656 12.46636719 1.04882812 11.19335938 C1.03699608 8.12885883 1.02051173 5.06445279 1 2 C0.70738281 2.62390625 0.41476562 3.2478125 0.11328125 3.890625 C-1.25123313 6.47602066 -2.46620804 7.55211888 -5 9 C-7.75 9.1875 -7.75 9.1875 -10 9 C-10 9.66 -10 10.32 -10 11 C-13.47307692 13.10865385 -13.47307692 13.10865385 -16.140625 12.55859375 C-17.06101562 12.28208984 -17.06101562 12.28208984 -18 12 C-17.03578125 11.46890625 -16.0715625 10.9378125 -15.078125 10.390625 C-13.80188759 9.6774335 -12.52585676 8.96387224 -11.25 8.25 C-10.61578125 7.90195312 -9.9815625 7.55390625 -9.328125 7.1953125 C-6.37857923 5.53619301 -4.1464887 4.15480011 -1.796875 1.671875 C-1.20390625 1.12015625 -0.6109375 0.5684375 0 0 Z " fill="#918B8A" transform="translate(419,26)"/>
<path d="M0 0 C-0.99 0.495 -0.99 0.495 -2 1 C1.278784 2.092928 3.76284411 2.15783872 7.21557617 2.20532227 C9.13722847 2.2352401 9.13722847 2.2352401 11.09770203 2.26576233 C12.49612304 2.2827454 13.89454531 2.29962425 15.29296875 2.31640625 C16.7235829 2.33698166 18.15419105 2.35797829 19.58479309 2.37937927 C23.34780006 2.43453933 27.11086135 2.48397529 30.8739624 2.53222656 C34.71485216 2.58248593 38.55566316 2.63814883 42.39648438 2.69335938 C49.93092287 2.80086673 57.46542691 2.90232811 65 3 C65 3.33 65 3.66 65 4 C55.38622526 4.15367978 45.77238629 4.30186146 36.15841866 4.4429636 C31.69459508 4.50865228 27.23081745 4.57625692 22.76708984 4.64819336 C18.4618594 4.71750578 14.15658109 4.78184661 9.85122299 4.84269524 C8.2061072 4.86682871 6.56101699 4.89277396 4.9159584 4.92053413 C2.61735282 4.9590177 0.31874182 4.99114215 -1.97998047 5.02172852 C-3.2901413 5.04171402 -4.60030212 5.06169952 -5.95016479 5.08229065 C-9 5 -9 5 -11 4 C-10.67 3.01 -10.34 2.02 -10 1 C-6.34742296 -0.62336757 -3.80637601 -1.46399077 0 0 Z " fill="#888384" transform="translate(271,374)"/>
<path d="M0 0 C0.99 0.33 1.98 0.66 3 1 C2.50628906 1.54269531 2.01257813 2.08539063 1.50390625 2.64453125 C0.54291016 3.71767578 0.54291016 3.71767578 -0.4375 4.8125 C-1.07558594 5.52019531 -1.71367187 6.22789062 -2.37109375 6.95703125 C-4.19086012 8.99896152 -4.19086012 8.99896152 -5 12 C-5.66 12 -6.32 12 -7 12 C-7.33 12.99 -7.66 13.98 -8 15 C-8.99 15 -9.98 15 -11 15 C-11.04125 15.680625 -11.0825 16.36125 -11.125 17.0625 C-12.75558968 22.5366225 -16.46430286 26.0549556 -21.25 29 C-22.1575 29.33 -23.065 29.66 -24 30 C-24.66 29.67 -25.32 29.34 -26 29 C-25.01 25.535 -25.01 25.535 -24 22 C-23.01 22.33 -22.02 22.66 -21 23 C-18.25177691 22.08392564 -17.23101402 21.39272383 -15.75 18.875 C-15.5025 18.25625 -15.255 17.6375 -15 17 C-14.34 17 -13.68 17 -13 17 C-12.67 16.01 -12.34 15.02 -12 14 C-11.01 14 -10.02 14 -9 14 C-8.67 12.68 -8.34 11.36 -8 10 C-7.34 10 -6.68 10 -6 10 C-5.731875 9.195625 -5.46375 8.39125 -5.1875 7.5625 C-4.795625 6.716875 -4.40375 5.87125 -4 5 C-3.01 4.67 -2.02 4.34 -1 4 C-0.26676204 1.98491642 -0.26676204 1.98491642 0 0 Z " fill="#DA070C" transform="translate(280,308)"/>
<path d="M0 0 C1.32 0.33 2.64 0.66 4 1 C-2.36363636 6 -2.36363636 6 -7 6 C-7 6.66 -7 7.32 -7 8 C-8.32 8 -9.64 8 -11 8 C-11 8.66 -11 9.32 -11 10 C-11.99 10.33 -12.98 10.66 -14 11 C-14.99 12.485 -14.99 12.485 -16 14 C-16.99 14.33 -17.98 14.66 -19 15 C-19.99 16.2684375 -19.99 16.2684375 -21 17.5625 C-21.66 18.366875 -22.32 19.17125 -23 20 C-23.99 20 -24.98 20 -26 20 C-26.4021875 21.2065625 -26.4021875 21.2065625 -26.8125 22.4375 C-27.204375 23.283125 -27.59625 24.12875 -28 25 C-28.99 25.33 -29.98 25.66 -31 26 C-29.58330822 20.80546349 -26.07891809 17.33817117 -22 14 C-21.34 14 -20.68 14 -20 14 C-20 13.34 -20 12.68 -20 12 C-17.59642338 10.04156109 -14.88542418 8.50276199 -12.25 6.875 C-11.52039063 6.40707031 -10.79078125 5.93914062 -10.0390625 5.45703125 C-9.33007812 5.01488281 -8.62109375 4.57273437 -7.890625 4.1171875 C-6.91657715 3.50786377 -6.91657715 3.50786377 -5.92285156 2.88623047 C-4 2 -4 2 0 2 C0 1.34 0 0.68 0 0 Z " fill="#DE080A" transform="translate(151,383)"/>
<path d="M0 0 C0.66 0.33 1.32 0.66 2 1 C1.85950482 2.47968324 1.71245174 3.95874516 1.5625 5.4375 C1.48128906 6.26121094 1.40007812 7.08492188 1.31640625 7.93359375 C1 10 1 10 0 11 C-0.12290718 12.65644366 -0.17783908 14.31798993 -0.20532227 15.97875977 C-0.22526749 17.03978409 -0.24521271 18.10080841 -0.26576233 19.19398499 C-0.28247482 20.348134 -0.29918732 21.50228302 -0.31640625 22.69140625 C-0.33718735 23.86638168 -0.35796844 25.04135712 -0.37937927 26.25193787 C-0.44500124 30.02206324 -0.5038183 33.79226082 -0.5625 37.5625 C-0.6056732 40.11133573 -0.64928708 42.66016403 -0.69335938 45.20898438 C-0.80069545 51.47257892 -0.9024379 57.73624601 -1 64 C0.98 63.505 0.98 63.505 3 63 C2.34 64.98 1.68 66.96 1 69 C0.01 69 -0.98 69 -2 69 C-2.0465401 61.33243951 -2.08197859 53.66489385 -2.10362434 45.99722385 C-2.11401832 42.43600503 -2.12809633 38.87488353 -2.15087891 35.3137207 C-2.17696249 31.21044023 -2.186509 27.10726046 -2.1953125 23.00390625 C-2.20563507 21.73793106 -2.21595764 20.47195587 -2.22659302 19.1676178 C-2.22743885 12.44534911 -1.76947326 6.49317093 0 0 Z " fill="#EC0408" transform="translate(100,379)"/>
<path d="M0 0 C-0.75023437 0.4846875 -1.50046875 0.969375 -2.2734375 1.46875 C-11.43993643 7.47199867 -20.10913234 13.38641543 -27 22 C-27.66 22 -28.32 22 -29 22 C-29.2475 22.7425 -29.495 23.485 -29.75 24.25 C-31.09147301 27.20124062 -32.60905526 28.84814974 -35 31 C-34.39602699 24.50729018 -31.43748122 21.43748122 -27 17 C-26.67 16.34 -26.34 15.68 -26 15 C-24.7934375 14.2884375 -24.7934375 14.2884375 -23.5625 13.5625 C-20.7644028 12.10335955 -20.7644028 12.10335955 -19 9 C-18.01 8.67 -17.02 8.34 -16 8 C-15.34 7.01 -14.68 6.02 -14 5 C-13.01 5 -12.02 5 -11 5 C-11 4.34 -11 3.68 -11 3 C-9.68 3 -8.36 3 -7 3 C-7 2.34 -7 1.68 -7 1 C-3.375 -1.125 -3.375 -1.125 0 0 Z " fill="#991516" transform="translate(151,388)"/>
<path d="M0 0 C25.41 0 50.82 0 77 0 C77.495 2.475 77.495 2.475 78 5 C77.34 5.33 76.68 5.66 76 6 C76 4.68 76 3.36 76 2 C50.92 1.67 25.84 1.34 0 1 C0 0.67 0 0.34 0 0 Z " fill="#711F23" transform="translate(214,294)"/>
<path d="M0 0 C0.33 0 0.66 0 1 0 C1.00808685 0.74280212 1.01617371 1.48560425 1.02450562 2.25091553 C1.10248018 9.25470437 1.18977942 16.2583006 1.28752708 23.26183701 C1.33745076 26.86234441 1.38378095 30.46282303 1.421875 34.06347656 C1.45877774 37.53899166 1.50515086 41.01426368 1.55806351 44.48957062 C1.58558648 46.45925455 1.60332708 48.42906728 1.62094116 50.39886475 C1.64081085 51.59980774 1.66068054 52.80075073 1.68115234 54.03808594 C1.69447601 55.09509705 1.70779968 56.15210815 1.7215271 57.2411499 C2.000996 60.00986748 2.73066178 61.57484944 4 64 C3.125 66.25 3.125 66.25 2 68 C1.34 68 0.68 68 0 68 C0 45.56 0 23.12 0 0 Z " fill="#8F2626" transform="translate(95,398)"/>
<path d="M0 0 C-1.051875 0.28875 -2.10375 0.5775 -3.1875 0.875 C-6.81529707 1.88096044 -6.81529707 1.88096044 -9.5 3 C-12 4 -12 4 -15.171875 4.875 C-19.14276566 6.04195562 -22.91838703 7.44892621 -26.75 9 C-27.40871094 9.26039063 -28.06742188 9.52078125 -28.74609375 9.7890625 C-31.73644647 10.99005609 -34.30751792 12.20501195 -37 14 C-37.99 14 -38.98 14 -40 14 C-40 14.66 -40 15.32 -40 16 C-42.31 16.66 -44.62 17.32 -47 18 C-44.31849202 14.88443497 -40.95119798 13.09449776 -37.375 11.1875 C-36.72200928 10.83929199 -36.06901855 10.49108398 -35.39624023 10.13232422 C-9.85076276 -3.05887089 -9.85076276 -3.05887089 0 0 Z " fill="#901A18" transform="translate(193,298)"/>
<path d="M0 0 C2.97 0.495 2.97 0.495 6 1 C6 1.66 6 2.32 6 3 C7.09441406 3.18755859 7.09441406 3.18755859 8.2109375 3.37890625 C10.89650819 3.9769535 13.11644177 4.82584794 15.625 5.9375 C20.27883751 7.86611735 24.7809437 8.85022866 29.75 9.60546875 C32 10 32 10 34 11 C36.33189345 11.26955833 38.66321507 11.44507377 41.00390625 11.62109375 C41.66261719 11.74613281 42.32132813 11.87117188 43 12 C43.495 12.99 43.495 12.99 44 14 C38.78292457 14.17661974 34.08419541 13.60350328 29 12.375 C27.90220215 12.1131189 27.90220215 12.1131189 26.78222656 11.84594727 C17.51634322 9.52149204 7.99662911 6.30603398 0 1 C0 0.67 0 0.34 0 0 Z " fill="#999394" transform="translate(148,249)"/>
<path d="M0 0 C0.99 0.33 1.98 0.66 3 1 C2.67 1.66 2.34 2.32 2 3 C1.01 3.33 0.02 3.66 -1 4 C-1.66 4.66 -2.32 5.32 -3 6 C-3 5.34 -3 4.68 -3 4 C-6.48035464 4.63953905 -9.9590515 5.28767995 -13.4375 5.9375 C-14.43072266 6.11990234 -15.42394531 6.30230469 -16.44726562 6.49023438 C-17.86362305 6.75610352 -17.86362305 6.75610352 -19.30859375 7.02734375 C-20.18314209 7.18968506 -21.05769043 7.35202637 -21.95874023 7.51928711 C-23.98228064 7.8068839 -23.98228064 7.8068839 -25 9 C-30.36437132 10.00581962 -35.55299453 10.11116338 -41 10 C-37.20920947 7.67179794 -33.13015639 7.25557609 -28.8125 6.625 C-22.31062636 5.61208496 -15.90296751 4.3950046 -9.5 2.875 C-8.77659424 2.70436035 -8.05318848 2.5337207 -7.30786133 2.35791016 C-3.55636689 1.45962021 -3.55636689 1.45962021 0 0 Z " fill="#ABA6A7" transform="translate(369,49)"/>
<path d="M0 0 C0.66 0 1.32 0 2 0 C1.70351562 0.56203125 1.40703125 1.1240625 1.1015625 1.703125 C-0.00943503 4.01967305 -0.83464706 6.30709092 -1.625 8.75 C-1.88539062 9.54921875 -2.14578125 10.3484375 -2.4140625 11.171875 C-2.60742188 11.77515625 -2.80078125 12.3784375 -3 13 C-3.99 13 -4.98 13 -6 13 C-6.226875 13.763125 -6.45375 14.52625 -6.6875 15.3125 C-8.87217623 21.45039989 -11.37899911 27.56849866 -15 33 C-14.67 29.37 -14.34 25.74 -14 22 C-13.01 21.67 -12.02 21.34 -11 21 C-9.86454438 18.70465742 -9.86454438 18.70465742 -9 16 C-8 13.5 -8 13.5 -7 11 C-6.34 11 -5.68 11 -5 11 C-4.9175 10.29875 -4.835 9.5975 -4.75 8.875 C-3.81990995 5.3096548 -2.23313631 2.90984428 0 0 Z " fill="#D4070C" transform="translate(118,409)"/>
<path d="M0 0 C3.0483248 0.32660623 4.00507689 1.00522194 6.1875 3.25 C9.62070454 8.45899999 9.2121266 14.19972444 9.25 20.25 C9.270625 21.05824219 9.29125 21.86648438 9.3125 22.69921875 C9.34985167 28.53541783 8.4664477 33.66984362 6 39 C5.34 39.66 4.68 40.32 4 41 C4.48582408 38.04128761 4.98355598 35.08786148 5.53515625 32.140625 C7.29423198 22.49828394 8.47323759 14.75351753 3.875 5.8125 C3 4 3 4 3 2 C2.01 1.67 1.02 1.34 0 1 C0 0.67 0 0.34 0 0 Z " fill="#ACA7A8" transform="translate(348,267)"/>
<path d="M0 0 C0.33 0 0.66 0 1 0 C1 15.51 1 31.02 1 47 C2.32 46.01 3.64 45.02 5 44 C4.4140625 50.15234375 4.4140625 50.15234375 4 52 C3.01 52.495 3.01 52.495 2 53 C-0.17585822 49.73621267 -0.24605016 48.84095685 -0.22705078 45.06958008 C-0.22689972 44.06876907 -0.22674866 43.06795807 -0.22659302 42.03681946 C-0.21627045 40.95861435 -0.20594788 39.88040924 -0.1953125 38.76953125 C-0.1924826 37.66397385 -0.18965271 36.55841644 -0.18673706 35.4193573 C-0.17553002 31.88362872 -0.15042427 28.3481522 -0.125 24.8125 C-0.11497089 22.41732136 -0.10584492 20.02213876 -0.09765625 17.62695312 C-0.07558897 11.75121589 -0.04210618 5.87562595 0 0 Z " fill="#A91210" transform="translate(96,408)"/>
<path d="M0 0 C0 7.52663956 -8.40916105 14.82161294 -13.125 20.375 C-13.87861816 21.26699097 -13.87861816 21.26699097 -14.64746094 22.17700195 C-17.52634858 25.51346427 -20.44389559 28.35571723 -24 31 C-22.880462 28.48103951 -21.68018448 26.60265345 -19.9375 24.4375 C-17.83615651 22.07973981 -17.83615651 22.07973981 -17 19 C-16.01 18.67 -15.02 18.34 -14 18 C-13.67 17.34 -13.34 16.68 -13 16 C-12.34 16 -11.68 16 -11 16 C-10.84337891 15.11828125 -10.84337891 15.11828125 -10.68359375 14.21875 C-9.89914495 11.67265332 -8.8659823 10.44017655 -7.0625 8.5 C-5.34417083 6.64234684 -4.05929202 5.11988716 -2.93359375 2.84375 C-2 1 -2 1 0 0 Z " fill="#941717" transform="translate(286,304)"/>
<path d="M0 0 C0.66 0.33 1.32 0.66 2 1 C1.01 2.485 1.01 2.485 0 4 C-0.66 4 -1.32 4 -2 4 C-2.25007813 4.57234375 -2.50015625 5.1446875 -2.7578125 5.734375 C-4.17069202 8.31132507 -5.8489786 10.12458888 -7.875 12.25 C-11.03076239 15.71280954 -13.15774703 18.88325457 -15.05859375 23.13671875 C-16.59027204 26.16829776 -18.73576612 28.48418458 -21 31 C-21 22.9012466 -13.00055043 13.90572733 -8 8 C-7.34 8 -6.68 8 -6 8 C-5.7525 7.4225 -5.505 6.845 -5.25 6.25 C-3.83316683 3.6997003 -2.12372463 1.98214299 0 0 Z " fill="#8E1414" transform="translate(128,328)"/>
<path d="M0 0 C0.66 0.33 1.32 0.66 2 1 C-3.97580291 7.2247947 -10.59382932 13.62182578 -18.5 17.25 C-19.2528125 17.60578125 -20.005625 17.9615625 -20.78125 18.328125 C-23.33062974 19.10012027 -24.49502344 18.72941343 -27 18 C-25.97261719 17.45472656 -24.94523437 16.90945313 -23.88671875 16.34765625 C-15.13477382 11.6151309 -7.4398618 6.66750327 0 0 Z " fill="#ADA9AA" transform="translate(326,342)"/>
<path d="M0 0 C1 2 1 2 0.25 5.4375 C-0.89232199 8.69311767 -1.45138943 9.89462605 -4 12 C-4.33 12.66 -4.66 13.32 -5 14 C-5.66 14 -6.32 14 -7 14 C-6.9175 14.70125 -6.835 15.4025 -6.75 16.125 C-7.0808255 19.92949327 -8.75313314 21.98077266 -11 25 C-12.48430102 21.14081734 -11.6330213 18.71141205 -10 15 C-8.33752986 12.99651034 -6.67067133 10.99665598 -5 9 C-3.86680923 6.70961018 -2.9581444 4.37254804 -2 2 C-1.34 1.34 -0.68 0.68 0 0 Z " fill="#D20708" transform="translate(117,343)"/>
<path d="M0 0 C0 0.66 0 1.32 0 2 C-0.969375 2.45375 -1.93875 2.9075 -2.9375 3.375 C-6.07079582 4.65786221 -6.07079582 4.65786221 -7 7 C-9.86536668 8.17049293 -12.88941217 8.88014921 -15.875 9.6875 C-16.70386719 9.92533203 -17.53273438 10.16316406 -18.38671875 10.40820312 C-19.18464844 10.62798828 -19.98257812 10.84777344 -20.8046875 11.07421875 C-21.53671387 11.27619873 -22.26874023 11.47817871 -23.02294922 11.6862793 C-25 12 -25 12 -28 11 C-27.03175293 10.60675537 -27.03175293 10.60675537 -26.04394531 10.20556641 C-23.1119585 9.01368899 -20.18097185 7.81937103 -17.25 6.625 C-15.72632813 6.00625 -15.72632813 6.00625 -14.171875 5.375 C-12.70234375 4.77558594 -12.70234375 4.77558594 -11.203125 4.1640625 C-10.30239258 3.79748535 -9.40166016 3.4309082 -8.47363281 3.05322266 C-6.01854849 2.04381511 -6.01854849 2.04381511 -3.79980469 0.86474609 C-2 0 -2 0 0 0 Z " fill="#9A9596" transform="translate(299,361)"/>
<path d="M0 0 C2.97 0 5.94 0 9 0 C0.93577213 5.37615192 -8.49895131 6.66308338 -18 7 C-16.94921875 5.54296875 -16.94921875 5.54296875 -15 4 C-11.64453125 3.48828125 -11.64453125 3.48828125 -7.8125 3.3125 C-5.90404297 3.21388672 -5.90404297 3.21388672 -3.95703125 3.11328125 C-2.98121094 3.07589844 -2.00539063 3.03851563 -1 3 C-0.67 2.01 -0.34 1.02 0 0 Z " fill="#ABA7A7" transform="translate(372,369)"/>
<path d="M0 0 C0.33 0 0.66 0 1 0 C0.38931487 6.94252565 -0.78930669 13.36792008 -3 20 C-3.66 20 -4.32 20 -5 20 C-5 21.65 -5 23.3 -5 25 C-5.33 25 -5.66 25 -6 25 C-5.505 20.545 -5.505 20.545 -5 16 C-4.34 16 -3.68 16 -3 16 C-3.05220703 15.14728516 -3.05220703 15.14728516 -3.10546875 14.27734375 C-3.30230592 8.66279774 -2.55495317 5.00344995 0 0 Z " fill="#AC0A0B" transform="translate(105,359)"/>
<path d="M0 0 C0 0.33 0 0.66 0 1 C-1.7015625 1.2165625 -1.7015625 1.2165625 -3.4375 1.4375 C-6.80777201 1.61171478 -6.80777201 1.61171478 -8 3 C-9.70772358 3.08713831 -11.41898649 3.10700007 -13.12890625 3.09765625 C-14.68061523 3.09282227 -14.68061523 3.09282227 -16.26367188 3.08789062 C-17.35228516 3.07951172 -18.44089844 3.07113281 -19.5625 3.0625 C-21.2012207 3.05573242 -21.2012207 3.05573242 -22.87304688 3.04882812 C-25.58208495 3.03699826 -28.29101599 3.02051543 -31 3 C-31 2.67 -31 2.34 -31 2 C-27.70913156 1.65846908 -24.41720923 1.32833354 -21.125 1 C-20.2071875 0.90460937 -19.289375 0.80921875 -18.34375 0.7109375 C-12.20690947 0.10589688 -6.16533625 -0.12065893 0 0 Z " fill="#9F9A99" transform="translate(313,61)"/>
<path d="M0 0 C-0.639375 0.268125 -1.27875 0.53625 -1.9375 0.8125 C-4.33131686 1.88667752 -4.33131686 1.88667752 -5 5 C-7.3984375 6.421875 -7.3984375 6.421875 -10.375 7.75 C-11.35210937 8.19859375 -12.32921875 8.6471875 -13.3359375 9.109375 C-16 10 -16 10 -19 9 C-16.35261084 7.5393715 -15.10551666 7 -12 7 C-11.67 6.01 -11.34 5.02 -11 4 C-10.01 4 -9.02 4 -8 4 C-8 3.34 -8 2.68 -8 2 C-3.61016949 -1.20338983 -3.61016949 -1.20338983 0 0 Z " fill="#9C1318" transform="translate(236,353)"/>
<path d="M0 0 C-0.99 0 -1.98 0 -3 0 C-3 0.66 -3 1.32 -3 2 C-8.85797948 4.86390108 -14.57409836 6.0122936 -21 7 C-16.47956038 2.11193427 -6.55446472 -2.62178589 0 0 Z " fill="#D20A08" transform="translate(186,301)"/>
<path d="M0 0 C0.66 0.33 1.32 0.66 2 1 C-1.25697128 4.79979982 -5.22568435 7.48005185 -10 9 C-12.25 8.60546875 -12.25 8.60546875 -14 8 C-10.34666857 5.36620292 -7.51478398 3.53115106 -3 3 C-3 2.34 -3 1.68 -3 1 C-2.01 0.67 -1.02 0.34 0 0 Z " fill="#D8090A" transform="translate(156,311)"/>
<path d="M0 0 C1.79244141 0.01740234 1.79244141 0.01740234 3.62109375 0.03515625 C5.41740234 0.04869141 5.41740234 0.04869141 7.25 0.0625 C8.17683594 0.07410156 9.10367187 0.08570313 10.05859375 0.09765625 C6.52444324 2.19523186 3.16627676 2.67869354 -0.87890625 3.22265625 C-2.08417969 3.39023438 -3.28945313 3.5578125 -4.53125 3.73046875 C-7.37694252 4.0368778 -10.08489452 4.17354081 -12.94140625 4.09765625 C-12.61140625 3.43765625 -12.28140625 2.77765625 -11.94140625 2.09765625 C-10.12890625 1.71875 -10.12890625 1.71875 -7.94140625 1.53515625 C-4.80102036 1.26037248 -3.04415024 0.10106741 0 0 Z " fill="#9F9999" transform="translate(324.94140625,144.90234375)"/>
<path d="M0 0 C0.66 0.33 1.32 0.66 2 1 C-2.33055496 5.45084815 -6.55818418 8.99268073 -12 12 C-12.66 12 -13.32 12 -14 12 C-14 11.34 -14 10.68 -14 10 C-11.69833213 8.20916148 -9.39761099 6.52740758 -7 4.875 C-6.33226562 4.40707031 -5.66453125 3.93914062 -4.9765625 3.45703125 C-3.32185734 2.29873764 -1.66144693 1.14860235 0 0 Z " fill="#921714" transform="translate(144,316)"/>
<path d="M0 0 C0.99 0.33 1.98 0.66 3 1 C0.39878001 4.90182998 -1.53899696 4.92320616 -6 6 C-7.2065625 6.309375 -7.2065625 6.309375 -8.4375 6.625 C-8.953125 6.74875 -9.46875 6.8725 -10 7 C-10 7.66 -10 8.32 -10 9 C-11.32 9.33 -12.64 9.66 -14 10 C-12.77150871 6.31452614 -11.16673216 5.70125273 -7.8515625 3.9140625 C-5.61539741 2.8101329 -3.32846249 1.89029448 -1 1 C-0.67 0.67 -0.34 0.34 0 0 Z " fill="#DC0B09" transform="translate(238,348)"/>
<path d="M0 0 C0.6171875 1.875 0.6171875 1.875 1 4 C-0.28965176 5.37562854 -1.62689293 6.70766393 -3 8 C-3.7872678 10.1381966 -3.7872678 10.1381966 -4 12 C-5.65 12.33 -7.3 12.66 -9 13 C-9 12.34 -9 11.68 -9 11 C-8.34 11 -7.68 11 -7 11 C-6.6596875 10.2265625 -6.6596875 10.2265625 -6.3125 9.4375 C-4.5024447 6.07596873 -2.26003596 3.07088856 0 0 Z " fill="#BDB9BB" transform="translate(345,321)"/>
<path d="M0 0 C6.06860493 1.32405926 11.39763719 3.32850292 17 6 C12.53426976 7.46257541 10.22614851 5.89448037 6 4 C4.01178687 3.60235737 2.01267638 3.24544834 0 3 C0 2.01 0 1.02 0 0 Z " fill="#A7A4A3" transform="translate(372,186)"/>
<path d="M0 0 C0.33 0.66 0.66 1.32 1 2 C-1.35968744 4.09749995 -2.54616994 4.96905704 -5.75 5.1875 C-6.86375 5.0946875 -6.86375 5.0946875 -8 5 C-8 5.66 -8 6.32 -8 7 C-11.47307692 9.10865385 -11.47307692 9.10865385 -14.140625 8.55859375 C-15.06101562 8.28208984 -15.06101562 8.28208984 -16 8 C-14.08702939 6.84800669 -12.16947471 5.70362312 -10.25 4.5625 C-9.18265625 3.92441406 -8.1153125 3.28632812 -7.015625 2.62890625 C-4.56515029 1.30526901 -2.71008663 0.46702949 0 0 Z " fill="#B1AFAF" transform="translate(417,30)"/>
<path d="M0 0 C0.33 0 0.66 0 1 0 C1.04898438 0.67546875 1.09796875 1.3509375 1.1484375 2.046875 C1.22320312 2.93890625 1.29796875 3.8309375 1.375 4.75 C1.44460937 5.63171875 1.51421875 6.5134375 1.5859375 7.421875 C1.8700127 10.01320972 1.8700127 10.01320972 3.09375 12.1875 C3.54234375 13.0846875 3.54234375 13.0846875 4 14 C3.125 16.25 3.125 16.25 2 18 C1.34 18 0.68 18 0 18 C0 12.06 0 6.12 0 0 Z " fill="#7C2A2D" transform="translate(95,448)"/>
<path d="M0 0 C0 3.77512638 -1.14499639 5.0154297 -3.3125 8.0625 C-3.92738281 8.94035156 -4.54226563 9.81820313 -5.17578125 10.72265625 C-7 13 -7 13 -10 15 C-9.49923552 10.66004119 -6.74962319 8.21907105 -4 5 C-3.31903578 3.67391178 -2.64669414 2.34313399 -2 1 C-1.34 0.67 -0.68 0.34 0 0 Z " fill="#A31316" transform="translate(286,304)"/>
<path d="M0 0 C-1.87144695 0.82065069 -3.74734336 1.6311584 -5.625 2.4375 C-6.66914063 2.88996094 -7.71328125 3.34242188 -8.7890625 3.80859375 C-11.88685251 4.95801705 -14.73210054 5.57311223 -18 6 C-16 3 -16 3 -13.9765625 2.33984375 C-13.20054687 2.20707031 -12.42453125 2.07429687 -11.625 1.9375 C-9.09208474 1.49275735 -7.176701 1.09426243 -4.8984375 -0.12109375 C-3 -1 -3 -1 0 0 Z " fill="#A19A9B" transform="translate(365,136)"/>
<path d="M0 0 C-5.65593728 3.77062485 -12.41710631 3.13434477 -19 3 C-15.88069175 1.2564244 -13.00889549 0.45354822 -9.5 -0.1875 C-8.5615625 -0.36667969 -7.623125 -0.54585937 -6.65625 -0.73046875 C-4.08888646 -0.99098064 -2.42584742 -0.80670869 0 0 Z " fill="#989493" transform="translate(347,56)"/>
<path d="M0 0 C0 1.65 0 3.3 0 5 C-0.99 5.33 -1.98 5.66 -3 6 C-3 5.34 -3 4.68 -3 4 C-5.64 4 -8.28 4 -11 4 C-7.61125486 1.74083657 -4.15175481 0 0 0 Z " fill="#B9B8B7" transform="translate(396,41)"/>
<path d="M0 0 C0.66 0.33 1.32 0.66 2 1 C0.61469871 4.42717768 -0.67477227 5.7293493 -4 7.3125 C-4.70125 7.65925781 -5.4025 8.00601562 -6.125 8.36328125 C-7.053125 8.67845703 -7.053125 8.67845703 -8 9 C-8.66 8.67 -9.32 8.34 -10 8 C-8.25 6 -8.25 6 -6 4 C-4.68 4 -3.36 4 -2 4 C-1.34 2.68 -0.68 1.36 0 0 Z " fill="#D50A0D" transform="translate(251,339)"/>
<path d="M0 0 C-2.97 2.97 -5.94 5.94 -9 9 C-9.66 8.67 -10.32 8.34 -11 8 C-10.34 6.68 -9.68 5.36 -9 4 C-8.01 4 -7.02 4 -6 4 C-6.33 2.68 -6.66 1.36 -7 0 C-2.25 -1.125 -2.25 -1.125 0 0 Z " fill="#A6A3A4" transform="translate(425,340)"/>
<path d="M0 0 C2.97 0.495 2.97 0.495 6 1 C4.25 3.9375 4.25 3.9375 2 7 C0.68 7.33 -0.64 7.66 -2 8 C-1.34 5.36 -0.68 2.72 0 0 Z " fill="#E70907" transform="translate(256,330)"/>
<path d="M0 0 C3.28465896 2.79196011 5.01321958 6.23196817 7 10 C7 10.66 7 11.32 7 12 C6.01 11.67 5.02 11.34 4 11 C3.6278958 9.67696283 3.29369827 8.34262065 3 7 C2.34 6.67 1.68 6.34 1 6 C0.375 2.9375 0.375 2.9375 0 0 Z " fill="#B3AEAC" transform="translate(431,229)"/>
<path d="M0 0 C1.43410153 3.78819273 0.51009497 6.06521279 -0.9375 9.75 C-1.31777344 10.73484375 -1.69804687 11.7196875 -2.08984375 12.734375 C-2.39019531 13.48203125 -2.69054687 14.2296875 -3 15 C-3.33 15 -3.66 15 -4 15 C-3.88648483 13.18674449 -3.75887039 11.37436643 -3.625 9.5625 C-3.55539062 8.55316406 -3.48578125 7.54382813 -3.4140625 6.50390625 C-3.27742188 5.67761719 -3.14078125 4.85132812 -3 4 C-2.34 3.67 -1.68 3.34 -1 3 C-0.67 2.01 -0.34 1.02 0 0 Z " fill="#AAA3A2" transform="translate(417,71)"/>
<path d="M0 0 C2.31 0 4.62 0 7 0 C4.76504572 2.23495428 2.97585464 3.0024791 0.0625 4.1875 C-0.81277344 4.55230469 -1.68804687 4.91710937 -2.58984375 5.29296875 C-5 6 -5 6 -8 5 C-2.25 2 -2.25 2 0 2 C0 1.34 0 0.68 0 0 Z " fill="#A0151B" transform="translate(168,377)"/>
<path d="M0 0 C1.32 0 2.64 0 4 0 C4 0.66 4 1.32 4 2 C0.04 3.98 -3.92 5.96 -8 8 C-8 7.34 -8 6.68 -8 6 C-5.4385343 3.70351351 -4.52032428 3 -1 3 C-0.67 2.01 -0.34 1.02 0 0 Z " fill="#781A1E" transform="translate(240,349)"/>
<path d="M0 0 C3.26845713 4.90268569 4.27944109 9.13173703 4 15 C0.57974684 11.57974684 0.04655199 7.28017975 -0.125 2.5625 C-0.08375 1.716875 -0.0425 0.87125 0 0 Z " fill="#9A9697" transform="translate(97,180)"/>
<path d="M0 0 C-4.33603239 3.09716599 -4.33603239 3.09716599 -7.5625 2.625 C-8.366875 2.41875 -9.17125 2.2125 -10 2 C-12.23167185 2.36856864 -12.23167185 2.36856864 -14 3 C-14 2.34 -14 1.68 -14 1 C-12.41913952 0.63495397 -10.83516093 0.28339494 -9.25 -0.0625 C-8.36828125 -0.25972656 -7.4865625 -0.45695312 -6.578125 -0.66015625 C-4.01320972 -0.99825872 -2.42908361 -0.81158635 0 0 Z " fill="#EC0704" transform="translate(197,300)"/>
<path d="M0 0 C1.2380014 3.57644848 0.74926071 6.33694766 0 10 C-1.32 10.33 -2.64 10.66 -4 11 C-3.52269162 9.5410574 -3.04308958 8.08286504 -2.5625 6.625 C-2.29566406 5.81289063 -2.02882813 5.00078125 -1.75390625 4.1640625 C-1 2 -1 2 0 0 Z " fill="#BEB9BA" transform="translate(351,308)"/>
<path d="M0 0 C3.63 0 7.26 0 11 0 C11.33 1.65 11.66 3.3 12 5 C11.01 5.495 11.01 5.495 10 6 C10 4.68 10 3.36 10 2 C6.7 1.67 3.4 1.34 0 1 C0 0.67 0 0.34 0 0 Z " fill="#721217" transform="translate(280,294)"/>
<path d="M0 0 C-0.99 1.485 -0.99 1.485 -2 3 C-4.3828125 3.29296875 -4.3828125 3.29296875 -7.125 3.1875 C-8.03507812 3.16042969 -8.94515625 3.13335937 -9.8828125 3.10546875 C-10.58148438 3.07066406 -11.28015625 3.03585938 -12 3 C-3.11538462 -1.55769231 -3.11538462 -1.55769231 0 0 Z " fill="#A39F9F" transform="translate(385,46)"/>
<path d="M0 0 C0.75 1.625 0.75 1.625 1 4 C-0.9375 7.25 -0.9375 7.25 -3 10 C-3.75 8.375 -3.75 8.375 -4 6 C-2.0625 2.75 -2.0625 2.75 0 0 Z " fill="#E20705" transform="translate(109,358)"/>
<path d="M0 0 C1.53445094 3.06890187 0.54984289 5.70094266 0 9 C-0.66 9 -1.32 9 -2 9 C-2.33 9.66 -2.66 10.32 -3 11 C-3 9.02 -3 7.04 -3 5 C-2.34 5 -1.68 5 -1 5 C-0.67 3.35 -0.34 1.7 0 0 Z " fill="#C11008" transform="translate(102,443)"/>
<path d="M0 0 C-0.99 0.495 -0.99 0.495 -2 1 C-1.01 1.66 -0.02 2.32 1 3 C-1.64 3 -4.28 3 -7 3 C-6.67 2.01 -6.34 1.02 -6 0 C-3.50907189 -1.24546405 -2.58919267 -0.7767578 0 0 Z " fill="#ADA5A4" transform="translate(271,374)"/>
<path d="M0 0 C0.66 0.33 1.32 0.66 2 1 C2 1.99 2 2.98 2 4 C-0.64 4 -3.28 4 -6 4 C-3.94766315 1.7522025 -2.99332739 0.9977758 0 0 Z " fill="#E9E3E3" transform="translate(274,372)"/>
<path d="M0 0 C2.97 0.495 2.97 0.495 6 1 C1.375 5 1.375 5 -2 5 C-1.34 3.35 -0.68 1.7 0 0 Z " fill="#C3BEC0" transform="translate(401,354)"/>
<path d="M0 0 C0.66 0.33 1.32 0.66 2 1 C-0.36377871 3.73700693 -2.62202381 4.78739316 -6 6 C-6.99 6.495 -6.99 6.495 -8 7 C-7.9375 5.1875 -7.9375 5.1875 -7 3 C-3.5625 1.1875 -3.5625 1.1875 0 0 Z " fill="#A91717" transform="translate(260,335)"/>
<path d="M0 0 C0.33 0 0.66 0 1 0 C1.042721 1.66611905 1.04063832 3.33382885 1 5 C0 6 0 6 -2.5625 6.0625 C-3.7690625 6.0315625 -3.7690625 6.0315625 -5 6 C-3.35830472 3.97945196 -1.69088222 1.97956942 0 0 Z " fill="#D2CCCF" transform="translate(335,334)"/>
<path d="M0 0 C0.66 0 1.32 0 2 0 C0.6302836 3.99500618 -1.25722422 6.80009492 -4 10 C-4 8.68 -4 7.36 -4 6 C-3.34 6 -2.68 6 -2 6 C-2 4.68 -2 3.36 -2 2 C-1.34 2 -0.68 2 0 2 C0 1.34 0 0.68 0 0 Z " fill="#AFACAB" transform="translate(435,320)"/>
<path d="M0 0 C0.66 0 1.32 0 2 0 C1.42415568 2.38564077 0.77772405 4.66682784 0 7 C-1.32 6.67 -2.64 6.34 -4 6 C-4 5.34 -4 4.68 -4 4 C-3.34 4 -2.68 4 -2 4 C-2 3.34 -2 2.68 -2 2 C-1.34 2 -0.68 2 0 2 C0 1.34 0 0.68 0 0 Z " fill="#C6BCC3" transform="translate(126,96)"/>
<path d="M0 0 C0.99 0 1.98 0 3 0 C3 0.66 3 1.32 3 2 C4.32 2.66 5.64 3.32 7 4 C1.25 4.125 1.25 4.125 -1 3 C-0.67 2.01 -0.34 1.02 0 0 Z " fill="#726D6C" transform="translate(261,375)"/>
<path d="M0 0 C0 0.66 0 1.32 0 2 C-4.455 2.495 -4.455 2.495 -9 3 C-7.14340032 -0.71319936 -3.69365381 -0.09982848 0 0 Z " fill="#D20B0C" transform="translate(179,374)"/>
<path d="M0 0 C-3.00617269 3.00617269 -5.82381598 2.59585316 -10 3 C-7.29536552 -0.8183075 -4.37912428 -0.24787496 0 0 Z " fill="#D1CBCB" transform="translate(364,373)"/>
<path d="M0 0 C0.66 0.33 1.32 0.66 2 1 C0.62673398 5.11979807 -2.08595092 8.04297546 -6 10 C-4.34832443 6.4213696 -2.21713508 3.25179812 0 0 Z " fill="#7B1613" transform="translate(120,336)"/>
<path d="M0 0 C0.66 0.33 1.32 0.66 2 1 C-0.64 3.64 -3.28 6.28 -6 9 C-6.33 8.01 -6.66 7.02 -7 6 C-4.69 4.02 -2.38 2.04 0 0 Z " fill="#ED0807" transform="translate(137,324)"/>
<path d="M0 0 C0.99 0.33 1.98 0.66 3 1 C0.525 4.465 0.525 4.465 -2 8 C-2.33 7.01 -2.66 6.02 -3 5 C-1.5625 2.3125 -1.5625 2.3125 0 0 Z " fill="#8B0E0D" transform="translate(119,411)"/>
<path d="M0 0 C3.66881155 0.70554068 6.70450534 2.27735506 10 4 C7.39417629 4.93065133 6.35801776 5.14917407 3.75 4.0625 C3.1725 3.711875 2.595 3.36125 2 3 C2 2.34 2 1.68 2 1 C1.34 0.67 0.68 0.34 0 0 Z " fill="#989493" transform="translate(389,193)"/>
<path d="M0 0 C0.66 0 1.32 0 2 0 C0.66666667 2.66666667 -0.66666667 5.33333333 -2 8 C-2.66 8 -3.32 8 -4 8 C-2.87548273 5.0280615 -1.77706209 2.66559313 0 0 Z " fill="#E5070A" transform="translate(118,409)"/>
<path d="M0 0 C0.99 0.33 1.98 0.66 3 1 C2.01 1.66 1.02 2.32 0 3 C-0.72965366 5.56282742 -0.72965366 5.56282742 -1 8 C-1.66 8 -2.32 8 -3 8 C-3.1875 5.125 -3.1875 5.125 -3 2 C-2.01 1.34 -1.02 0.68 0 0 Z " fill="#E60807" transform="translate(127,333)"/>
<path d="M0 0 C0.33 0.66 0.66 1.32 1 2 C1.66 2 2.32 2 3 2 C3.66 3.32 4.32 4.64 5 6 C4.01 6 3.02 6 2 6 C1.67 6.66 1.34 7.32 1 8 C0.67 5.36 0.34 2.72 0 0 Z " fill="#C9C6C3" transform="translate(419,214)"/>
<path d="M0 0 C0.66 0 1.32 0 2 0 C2 1.65 2 3.3 2 5 C0.35 5.33 -1.3 5.66 -3 6 C-2 4 -1 2 0 0 Z " fill="#B3B0B0" transform="translate(118,104)"/>
</svg>
